# xmcd
#
# Track frame offsets:
#	150
#	16605
#	34587
#	54130
#
# Disc length: 935 seconds
#
# Revision: 0
# Processed by: cddbd v1.5.2PL0 Copyright (c) Steve Scherf et al.
# Submitted via: audiograbber 1.83.01
#
DISCID=1c03a504
DTITLE=Quicksilver - See The Light [CDM)
DYEAR=1997
DGENRE=Dance
TTITLE0=See The Light (Radio Edit)
TTITLE1=See The Light (Club RMX)
TTITLE2=See The Light (Extended Play)
TTITLE3=When We Touch
EXTD=TR.
EXTT0=
EXTT1=
EXTT2=
EXTT3=
PLAYORDER=
